<svg xmlns="http://www.w3.org/2000/svg" width="54.219" height="54.527" viewBox="0 0 54.219 54.527">
  <g id="Group_227" data-name="Group 227" transform="translate(1 1)">
    <path id="Path_236" data-name="Path 236" d="M395.63,146.783a1.97,1.97,0,1,1-1.969,1.969A1.97,1.97,0,0,1,395.63,146.783Zm5.859,1.936h0v22.164a1.848,1.848,0,0,1-1.842,1.843h-3.582a1.847,1.847,0,0,1-1.842-1.843V154.441a5.859,5.859,0,1,1,7.265-5.722Z" transform="translate(-389.771 -120.199)" fill="none" stroke="#fff" stroke-linecap="round" stroke-linejoin="round" stroke-width="2"/>
    <path id="Path_237" data-name="Path 237" d="M438.449,146.783a1.97,1.97,0,1,0,1.97,1.969A1.969,1.969,0,0,0,438.449,146.783Zm-5.858,1.936h0v22.164a1.848,1.848,0,0,0,1.843,1.843h3.582a1.847,1.847,0,0,0,1.842-1.843V154.441a5.859,5.859,0,1,0-7.265-5.722Z" transform="translate(-392.088 -120.199)" fill="none" stroke="#fff" stroke-linecap="round" stroke-linejoin="round" stroke-width="2"/>
    <path id="Path_238" data-name="Path 238" d="M395.952,141.691v-7.452c0-9.676,10.355-15.339,20.031-15.339,9.165,0,20.423,4.886,20.423,15.339v7.452" transform="translate(-390.106 -118.9)" fill="none" stroke="#fff" stroke-linecap="round" stroke-linejoin="round" stroke-width="2"/>
    <path id="Path_239" data-name="Path 239" d="M402.16,170.572h28.822M402.16,163.5h28.822m-28.82-5.722h28.82" transform="translate(-390.442 -121.004)" fill="none" stroke="#fff" stroke-linecap="round" stroke-linejoin="round" stroke-width="2"/>
    <path id="Path_240" data-name="Path 240" d="M405.261,135.428l4.831-4.831m-4.832,0,4.832,4.831" transform="translate(-390.609 -119.533)" fill="none" stroke="#fff" stroke-linecap="round" stroke-linejoin="round" stroke-width="2"/>
    <path id="Path_241" data-name="Path 241" d="M424.309,135.428l4.831-4.831m-4.831,0,4.831,4.831" transform="translate(-391.64 -119.533)" fill="none" stroke="#fff" stroke-linecap="round" stroke-linejoin="round" stroke-width="2"/>
    <path id="Path_242" data-name="Path 242" d="M414.785,147.747l4.831-4.831m-4.832,0,4.832,4.831" transform="translate(-391.125 -120.2)" fill="none" stroke="#fff" stroke-linecap="round" stroke-linejoin="round" stroke-width="2"/>
  </g>
</svg>
