<svg id="Icons" xmlns="http://www.w3.org/2000/svg" width="24.022" height="24.022" viewBox="0 0 24.022 24.022">
  <g id="Rounded">
    <g id="Communication" transform="translate(0 0)">
      <g id="_-Round-_-Communication-_-location_on" data-name="-Round-/-Communication-/-location_on">
        <g id="Group_104" data-name="Group 104">
          <path id="Path" d="M0,0H24.022V24.022H0Z" fill="none" fill-rule="evenodd"/>
          <path id="_Icon-Color" data-name="🔹Icon-Color" d="M12.006,2A7,7,0,0,0,5,9.006c0,4.174,4.424,9.929,6.246,12.121a.994.994,0,0,0,1.531,0c1.812-2.192,6.236-7.947,6.236-12.121A7,7,0,0,0,12.006,2Zm0,9.509a2.5,2.5,0,1,1,2.5-2.5A2.5,2.5,0,0,1,12.006,11.509Z" transform="translate(0.005 0.002)" fill-rule="evenodd"/>
        </g>
      </g>
    </g>
  </g>
</svg>
