<svg id="_007-call-answer" data-name="007-call-answer" xmlns="http://www.w3.org/2000/svg" width="19.544" height="19.5" viewBox="0 0 19.544 19.5">
  <g id="Group_15" data-name="Group 15">
    <g id="Group_14" data-name="Group 14" transform="translate(0 0)">
      <path id="Path_38" data-name="Path 38" d="M19.106,15.817,16.087,12.8a1.574,1.574,0,0,0-2.219.042l-1.521,1.52-.3-.167A15.132,15.132,0,0,1,8.39,11.548,15.217,15.217,0,0,1,5.74,7.884c-.056-.1-.11-.2-.164-.293L6.6,6.572l.5-.5a1.572,1.572,0,0,0,.04-2.219L4.12.832A1.572,1.572,0,0,0,1.9.873l-.851.856.023.023a4.919,4.919,0,0,0-.7,1.236A5.126,5.126,0,0,0,.061,4.242c-.4,3.3,1.111,6.324,5.209,10.421C10.934,20.327,15.5,19.9,15.7,19.879a5.1,5.1,0,0,0,1.258-.316,4.9,4.9,0,0,0,1.232-.7l.019.017.862-.844A1.575,1.575,0,0,0,19.106,15.817Z" transform="translate(0 -0.394)"/>
    </g>
  </g>
</svg>
