<svg id="_007-instagram" data-name="007-instagram" xmlns="http://www.w3.org/2000/svg" width="24.997" height="24.997" viewBox="0 0 24.997 24.997">
  <path id="Path_131" data-name="Path 131" d="M18.231,0H6.767A6.774,6.774,0,0,0,0,6.767V18.231A6.774,6.774,0,0,0,6.767,25H18.231A6.774,6.774,0,0,0,25,18.231V6.767A6.774,6.774,0,0,0,18.231,0Zm5.3,18.231a5.307,5.307,0,0,1-5.3,5.3H6.767a5.307,5.307,0,0,1-5.3-5.3V6.767a5.307,5.307,0,0,1,5.3-5.3H18.231a5.307,5.307,0,0,1,5.3,5.3Zm0,0" transform="translate(0 0)" fill="#fff"/>
  <path id="Path_132" data-name="Path 132" d="M122.839,116a6.835,6.835,0,1,0,6.835,6.835A6.843,6.843,0,0,0,122.839,116Zm0,12.2a5.37,5.37,0,1,1,5.37-5.37A5.376,5.376,0,0,1,122.839,128.208Zm0,0" transform="translate(-110.34 -110.34)" fill="#fff"/>
  <path id="Path_133" data-name="Path 133" d="M360,66.285a2.02,2.02,0,1,0,2.02,2.02A2.022,2.022,0,0,0,360,66.285Zm0,2.574a.554.554,0,1,1,.554-.554A.555.555,0,0,1,360,68.859Zm0,0" transform="translate(-340.499 -63.049)" fill="#fff"/>
</svg>
