<svg xmlns="http://www.w3.org/2000/svg" width="49.938" height="49.938" viewBox="0 0 49.938 49.938">
  <path id="key" d="M35.3,0A14.606,14.606,0,0,0,22.766,22.154L.5,44.415A1.722,1.722,0,1,0,2.939,46.85l3.088-3.088L11.7,49.433A1.722,1.722,0,1,0,14.132,47L8.462,41.328l1.87-1.87,3.949,3.949a1.722,1.722,0,1,0,2.435-2.435l-3.949-3.949,1.87-1.87,5.671,5.671a1.722,1.722,0,1,0,2.435-2.435l-5.671-5.671L24.885,24.9A14.632,14.632,0,1,0,35.3,0Zm0,25.83A11.193,11.193,0,1,1,46.494,14.637,11.206,11.206,0,0,1,35.3,25.83Z" transform="translate(0)" fill="#fff"/>
</svg>
