<svg xmlns="http://www.w3.org/2000/svg" width="62.108" height="57.887" viewBox="0 0 62.108 57.887">
  <g id="Group_226" data-name="Group 226" transform="translate(1 1)">
    <line id="Line_34" data-name="Line 34" y2="16.396" transform="translate(37.026 39.49)" fill="none" stroke="#fff" stroke-linecap="round" stroke-linejoin="round" stroke-width="2"/>
    <path id="Path_243" data-name="Path 243" d="M729,146.32,745.5,168.851h3.256a4.932,4.932,0,0,1,4.91,4.685H742.391L722.041,145.3h-2.917v-.073h.8v-7.213h4.988A4.166,4.166,0,0,1,729,141.447Z" transform="translate(-693.562 -117.649)" fill="none" stroke="#fff" stroke-linecap="round" stroke-linejoin="round" stroke-width="2"/>
    <line id="Line_35" data-name="Line 35" x2="13.397" transform="translate(8.355 50.958)" fill="none" stroke="#fff" stroke-linecap="round" stroke-linejoin="round" stroke-width="2"/>
    <line id="Line_36" data-name="Line 36" x2="13.397" transform="translate(8.355 42.422)" fill="none" stroke="#fff" stroke-linecap="round" stroke-linejoin="round" stroke-width="2"/>
    <line id="Line_37" data-name="Line 37" x2="13.397" transform="translate(8.355 33.886)" fill="none" stroke="#fff" stroke-linecap="round" stroke-linejoin="round" stroke-width="2"/>
    <rect id="Rectangle_777" data-name="Rectangle 777" width="4.608" height="28.308" transform="translate(21.752 27.579)" stroke-width="2" stroke="#fff" stroke-linecap="round" stroke-linejoin="round" fill="none"/>
    <rect id="Rectangle_778" data-name="Rectangle 778" width="4.608" height="28.308" transform="translate(3.737 27.579)" stroke-width="2" stroke="#fff" stroke-linecap="round" stroke-linejoin="round" fill="none"/>
    <path id="Path_244" data-name="Path 244" d="M708.61,130.355a5.321,5.321,0,1,1-5.32,5.32A5.321,5.321,0,0,1,708.61,130.355Z" transform="translate(-693.562 -117.649)" fill="none" stroke="#fff" stroke-linecap="round" stroke-linejoin="round" stroke-width="2"/>
    <path id="Path_245" data-name="Path 245" d="M693.563,126.124h30.094l-15.047-8.475Z" transform="translate(-693.563 -117.649)" fill="none" stroke="#fff" stroke-linecap="round" stroke-linejoin="round" stroke-width="2"/>
    <rect id="Rectangle_779" data-name="Rectangle 779" width="22.623" height="19.104" transform="translate(3.737 8.475)" stroke-width="2" stroke="#fff" stroke-linecap="round" stroke-linejoin="round" fill="none"/>
  </g>
</svg>
