<svg id="Icons" xmlns="http://www.w3.org/2000/svg" width="22.716" height="22.716" viewBox="0 0 22.716 22.716">
  <g id="Rounded">
    <g id="Communication">
      <g id="_-Round-_-Communication-_-location_on" data-name="-Round-/-Communication-/-location_on">
        <g id="Group_104" data-name="Group 104">
          <path id="Path" d="M0,0H22.716V22.716H0Z" fill="none" fill-rule="evenodd"/>
          <path id="_Icon-Color" data-name="🔹Icon-Color" d="M11.625,2A6.621,6.621,0,0,0,5,8.625c0,3.947,4.184,9.389,5.906,11.462a.94.94,0,0,0,1.448,0c1.713-2.073,5.9-7.515,5.9-11.462A6.621,6.621,0,0,0,11.625,2Zm0,8.992a2.366,2.366,0,1,1,2.366-2.366A2.367,2.367,0,0,1,11.625,10.992Z" transform="translate(-0.268 -0.107)" fill="#fff" fill-rule="evenodd"/>
        </g>
      </g>
    </g>
  </g>
</svg>
