<svg id="coin" xmlns="http://www.w3.org/2000/svg" width="66.479" height="66.479" viewBox="0 0 66.479 66.479">
  <g id="Group_687" data-name="Group 687">
    <path id="Path_1540" data-name="Path 1540" d="M179.351,125.9h-4.936a3.72,3.72,0,0,1,0-7.44h8.713a1.7,1.7,0,0,0,0-3.395h-4.54V111.6a1.7,1.7,0,1,0-3.395,0v3.465h-.778a7.115,7.115,0,0,0,0,14.229h4.936a3.72,3.72,0,1,1,0,7.44h-8.869a1.7,1.7,0,0,0,0,3.395h4.7v3.536a1.7,1.7,0,0,0,3.395,0v-3.536h.863a7.115,7.115,0,0,0-.085-14.229Z" transform="translate(-143.636 -94.355)" fill="#fff"/>
    <path id="Path_1541" data-name="Path 1541" d="M56.748,9.731A33.245,33.245,0,0,0,9.731,56.748,33.245,33.245,0,0,0,56.748,9.731ZM33.24,63.084A29.845,29.845,0,1,1,63.084,33.24,29.887,29.887,0,0,1,33.24,63.084Z" fill="#fff"/>
  </g>
</svg>
