<svg xmlns="http://www.w3.org/2000/svg" width="25.213" height="25.213" viewBox="0 0 25.213 25.213">
  <path id="_010-facebook-1" data-name="010-facebook-1" d="M3.693,25.213h8.224V16.25H8.962V13.3h2.955V9.6A3.7,3.7,0,0,1,15.61,5.909H19.3V8.864H16.349a1.479,1.479,0,0,0-1.477,1.477V13.3h4.3l-.492,2.955H14.871v8.962h6.648a3.7,3.7,0,0,0,3.693-3.693V3.693A3.7,3.7,0,0,0,21.519,0H3.693A3.7,3.7,0,0,0,0,3.693V21.519A3.7,3.7,0,0,0,3.693,25.213ZM1.477,3.693A2.218,2.218,0,0,1,3.693,1.477H21.519a2.218,2.218,0,0,1,2.216,2.216V21.519a2.218,2.218,0,0,1-2.216,2.216H16.349V17.728h3.58l.985-5.909H16.349V10.341h4.432V4.432H15.61A5.176,5.176,0,0,0,10.44,9.6v2.216H7.485v5.909H10.44v6.008H3.693a2.218,2.218,0,0,1-2.216-2.216Zm0,0" fill="#fff"/>
</svg>
