<svg xmlns="http://www.w3.org/2000/svg" width="57.047" height="75.587" viewBox="0 0 57.047 75.587">
  <g id="Group_225" data-name="Group 225" transform="translate(1 1)">
    <path id="Path_231" data-name="Path 231" d="M527.052-187.668a7.573,7.573,0,0,1,6.416,4.133,7.175,7.175,0,0,1,6.416-4.133,7.984,7.984,0,0,1,5.277,1.961,7.278,7.278,0,0,1,2.53,5.49c0,5.164-7.23,12.953-14.1,17.493-7.224-4.463-14.342-12.329-14.342-17.493a7.241,7.241,0,0,1,2.071-5.054A7.961,7.961,0,0,1,527.052-187.668Zm6.416-20.015a27.522,27.522,0,0,1,27.523,27.523c0,15.2-12.322,30.305-27.523,46.064-15.2-15.758-27.524-30.863-27.524-46.064A27.524,27.524,0,0,1,533.468-207.683Z" transform="translate(-505.944 207.683)" fill="none" stroke="#fff" stroke-linecap="round" stroke-linejoin="round" stroke-width="2"/>
  </g>
</svg>
