<svg xmlns="http://www.w3.org/2000/svg" width="98.5" height="106.518" viewBox="0 0 98.5 106.518">
  <g id="Group_978" data-name="Group 978" transform="translate(-1079.5 -1869.982)">
    <g id="Group_689" data-name="Group 689" transform="translate(2200.5 -8550.5) rotate(90)">
      <rect id="Rectangle_842" data-name="Rectangle 842" width="84" height="83" transform="translate(10443 1038)"/>
      <path id="_7642493391540882604" data-name="7642493391540882604" d="M75.3,51.778,50.445,76.636l1.587,1.692L79.746,50.614,52.032,22.9l-1.587,1.692L75.3,49.45H18.5v2.327Z" transform="translate(10437.414 1027.026)" fill="#fff"/>
    </g>
    <g id="pdf" transform="translate(1106.484 1869.982)">
      <path id="Path_1542" data-name="Path 1542" d="M98.823,0A2.831,2.831,0,0,0,96,2.823V42.338a2.831,2.831,0,0,0,2.823,2.823h28.225a2.831,2.831,0,0,0,2.823-2.823V11.29L118.58,0Z" transform="translate(-58.355)" fill="#e2e5e7"/>
      <path id="Path_1543" data-name="Path 1543" d="M354.823,11.29h8.468L352,0V8.468A2.831,2.831,0,0,0,354.823,11.29Z" transform="translate(-291.775)" fill="#b0b7bd"/>
      <path id="Path_1544" data-name="Path 1544" d="M392.468,136.468,384,128h8.468Z" transform="translate(-320.952 -116.71)" fill="#cad1d8"/>
      <path id="Path_1545" data-name="Path 1545" d="M65.871,255.524a1.415,1.415,0,0,1-1.411,1.411H33.411A1.415,1.415,0,0,1,32,255.524V241.411A1.415,1.415,0,0,1,33.411,240H64.459a1.415,1.415,0,0,1,1.411,1.411Z" transform="translate(0 -218.831)" fill="#f15642"/>
      <g id="Group_690" data-name="Group 690" transform="translate(38.152 25.96)">
        <path id="Path_1546" data-name="Path 1546" d="M101.744,295.1a.776.776,0,0,1,.766-.779h2.607a2.821,2.821,0,0,1,0,5.642h-1.884v1.49a.708.708,0,0,1-.723.778.76.76,0,0,1-.766-.778Zm1.489.642v2.811h1.884a1.407,1.407,0,0,0,0-2.811Z" transform="translate(-101.744 -294.32)" fill="#fff"/>
        <path id="Path_1547" data-name="Path 1547" d="M188.6,303.281a.706.706,0,0,1-.779-.7v-6.41a.768.768,0,0,1,.779-.7h2.584c5.157,0,5.044,7.809.1,7.809Zm.711-6.431V301.9h1.873c3.047,0,3.182-5.055,0-5.055Z" transform="translate(-180.231 -295.37)" fill="#fff"/>
        <path id="Path_1548" data-name="Path 1548" d="M288.612,296.925v1.794h2.878a.873.873,0,0,1,.813.8.784.784,0,0,1-.813.677h-2.878v2.37a.669.669,0,0,1-.676.7.717.717,0,0,1-.8-.7v-6.41a.713.713,0,0,1,.8-.7H291.9a.7.7,0,0,1,.79.7.78.78,0,0,1-.79.768h-3.285Z" transform="translate(-270.784 -295.356)" fill="#fff"/>
      </g>
      <path id="Path_1549" data-name="Path 1549" d="M122.814,417.411H96v1.411h26.814a1.415,1.415,0,0,0,1.411-1.411V416A1.415,1.415,0,0,1,122.814,417.411Z" transform="translate(-58.355 -379.307)" fill="#cad1d8"/>
    </g>
  </g>
</svg>
