<svg id="_007-call-answer" data-name="007-call-answer" xmlns="http://www.w3.org/2000/svg" width="18.482" height="18.44" viewBox="0 0 18.482 18.44">
  <g id="Group_15" data-name="Group 15">
    <g id="Group_14" data-name="Group 14">
      <path id="Path_38" data-name="Path 38" d="M18.067,14.979l-2.854-2.855a1.488,1.488,0,0,0-2.1.04L11.677,13.6l-.284-.158a14.31,14.31,0,0,1-3.459-2.5A14.389,14.389,0,0,1,5.427,7.477c-.053-.1-.1-.189-.155-.277l.965-.964.474-.475a1.487,1.487,0,0,0,.038-2.1L3.9.808a1.487,1.487,0,0,0-2.1.04l-.8.809.022.022A4.652,4.652,0,0,0,.353,2.847,4.847,4.847,0,0,0,.058,4.033c-.377,3.124,1.051,5.98,4.926,9.855,5.356,5.356,9.672,4.951,9.859,4.931a4.823,4.823,0,0,0,1.189-.3,4.636,4.636,0,0,0,1.165-.66l.018.016.815-.8A1.49,1.49,0,0,0,18.067,14.979Z" transform="translate(0 -0.394)" fill="#fff"/>
    </g>
  </g>
</svg>
