<svg xmlns="http://www.w3.org/2000/svg" width="68.043" height="68.469" viewBox="0 0 68.043 68.469">
  <g id="Group_224" data-name="Group 224" transform="translate(1 1)">
    <path id="Path_197" data-name="Path 197" d="M97.732-159.8v2.05m0-7.564a2.621,2.621,0,0,1,2.621,2.62,2.621,2.621,0,0,1-2.621,2.62,2.62,2.62,0,0,1-2.62-2.62A2.62,2.62,0,0,1,97.732-165.312Zm-10.988-4.674h21.975v16.71H86.744Zm2.754-.184v-3.672a8.257,8.257,0,0,1,8.234-8.232h0a8.257,8.257,0,0,1,8.234,8.232v3.672m-8.234,29.664H69.37V-177.3H64.71v-5.25l33.022-24.429,33.022,24.429v5.25h-4.66v36.79Z" transform="translate(-64.71 206.974)" fill="none" stroke="#fff" stroke-linecap="round" stroke-linejoin="round" stroke-width="2"/>
  </g>
</svg>
